<svg width="64" height="24" viewBox="0 0 64 24" fill="none" xmlns="http://www.w3.org/2000/svg">
<path d="M54.2959 4.4541L61.0459 11.2041C61.1508 11.3086 61.234 11.4328 61.2908 11.5696C61.3476 11.7063 61.3768 11.8529 61.3768 12.001C61.3768 12.149 61.3476 12.2957 61.2908 12.4324C61.234 12.5691 61.1508 12.6933 61.0459 12.7979L54.2959 19.5479C54.0846 19.7592 53.7979 19.8779 53.4991 19.8779C53.2002 19.8779 52.9135 19.7592 52.7022 19.5479C52.4908 19.3365 52.3721 19.0499 52.3721 18.751C52.3721 18.4521 52.4908 18.1654 52.7022 17.9541L57.5313 13.125L43.75 13.125C43.4516 13.125 43.1655 13.0065 42.9545 12.7955C42.7435 12.5846 42.625 12.2984 42.625 12C42.625 11.7017 42.7435 11.4155 42.9545 11.2045C43.1655 10.9936 43.4516 10.875 43.75 10.875L57.5313 10.875L52.7012 6.04598C52.4899 5.83464 52.3712 5.54799 52.3712 5.2491C52.3712 4.95022 52.4899 4.66357 52.7012 4.45223C52.9126 4.24089 53.1992 4.12215 53.4981 4.12215C53.797 4.12215 54.0837 4.24089 54.295 4.45223L54.2959 4.4541Z" fill="black"/>
<path d="M9.70406 4.4541L2.95406 11.2041C2.84918 11.3086 2.76597 11.4328 2.70919 11.5696C2.6524 11.7063 2.62317 11.8529 2.62317 12.001C2.62317 12.149 2.6524 12.2957 2.70919 12.4324C2.76597 12.5691 2.84918 12.6933 2.95406 12.7979L9.70406 19.5479C9.91541 19.7592 10.2021 19.8779 10.5009 19.8779C10.7998 19.8779 11.0865 19.7592 11.2978 19.5479C11.5092 19.3365 11.6279 19.0499 11.6279 18.751C11.6279 18.4521 11.5092 18.1654 11.2978 17.9541L6.46875 13.125L20.25 13.125C20.5484 13.125 20.8345 13.0065 21.0455 12.7955C21.2565 12.5846 21.375 12.2984 21.375 12C21.375 11.7017 21.2565 11.4155 21.0455 11.2045C20.8345 10.9936 20.5484 10.875 20.25 10.875L6.46875 10.875L11.2988 6.04598C11.5101 5.83464 11.6288 5.54799 11.6288 5.2491C11.6288 4.95022 11.5101 4.66357 11.2988 4.45223C11.0874 4.24089 10.8008 4.12215 10.5019 4.12215C10.203 4.12215 9.91634 4.24089 9.705 4.45223L9.70406 4.4541Z" fill="black"/>
</svg>
