<svg width="208" height="33" viewBox="0 0 208 33" fill="none" xmlns="http://www.w3.org/2000/svg">
<path fill-rule="evenodd" clip-rule="evenodd" d="M17.1298 29.3781C9.89114 29.3781 3.71249 23.1371 3.71249 16.3298C3.71249 9.54776 9.76182 3.1828 17.0778 3.1828C21.887 3.1828 25.3499 5.39446 28.1684 8.85957H31.7098C30.6498 7.04086 29.5125 5.37029 27.7805 4.06746C24.8072 1.78225 20.9552 0.431091 17.1298 0.431091C7.95243 0.431091 0.481689 7.63134 0.481689 16.3057C0.481689 25.0042 8.05633 32.1309 17.1817 32.1309C20.9044 32.1309 24.5497 30.8291 27.471 28.6416C29.3069 27.241 30.599 25.4223 31.8402 23.5542H28.2989C25.5058 27.0194 21.9389 29.3781 17.1298 29.3781ZM53.8391 12.7912C51.6163 10.0636 48.5911 8.34369 44.843 8.34369C38.1217 8.34369 32.5896 13.5298 32.5896 19.9189C32.5896 26.307 38.1482 31.5414 44.843 31.5414C48.747 31.5414 51.4605 29.9928 53.8391 27.1423V31.0245H56.7604V8.88373H53.8391V12.7912ZM44.6883 28.9852C39.5431 28.9852 35.4844 24.7341 35.4844 19.9431C35.4844 15.1751 39.5177 10.9 44.6883 10.9C49.8324 10.9 53.8391 15.1762 53.8391 19.9431C53.8391 24.7341 49.8059 28.9852 44.6883 28.9852ZM60.3018 31.0245H63.4309V1.06885H60.3018V31.0245ZM75.2444 27.51L67.3337 8.88373H64.2312L73.7191 31.0245H76.8725L86.335 8.88373H83.2844L75.2444 27.51ZM87.6271 31.0245H90.7551V8.88373H87.6271V31.0245ZM87.6271 6.03327H90.7551V1.06885H87.6271V6.03327ZM104.224 8.34264C101.277 8.34264 99.1831 9.81778 97.2444 11.7836V8.88373H94.3485V31.0245H97.4245V17.5329C97.3991 13.97 100.501 10.8989 104.275 10.8989C109.005 10.8989 111.383 14.8064 111.383 18.8367V31.0256H114.278V18.8367C114.279 13.0864 110.739 8.34264 104.224 8.34264ZM143.311 1.06885L129.093 18.2463V1.06885H126.017V31.0245H129.093V22.7925L133.126 18.0256L143.389 31.0245H147.294L135.09 15.6658L147.294 1.06885H143.311ZM148.43 31.0245H151.482V1.06885H148.43V31.0245ZM176.738 14.4617C174.618 10.7014 170.378 8.34264 165.905 8.34264C159.236 8.34264 153.599 13.6265 153.599 19.9662C153.599 26.3543 159.287 31.5404 165.959 31.5404C169.137 31.5404 172.267 30.3363 174.566 28.2476C175.963 26.9941 176.79 25.4213 177.538 23.7749H174.256C172.601 26.847 169.679 28.9841 165.904 28.9841C163.605 28.9841 161.355 28.0994 159.65 26.6001C157.89 25.0777 157.115 23.2086 156.778 20.998H178.263C178.264 18.6886 177.927 16.4769 176.738 14.4617ZM156.883 18.4427C157.816 14.2905 161.252 10.8989 165.959 10.8989C169.914 10.8989 174.154 13.2093 175.084 18.4427H156.883ZM180.539 31.0245H183.614V8.88373H180.539V31.0245ZM180.539 6.13203H183.614V1.06885H180.539V6.13203ZM197.136 8.34264C194.135 8.34264 192.042 9.81778 190.077 11.7836V8.88373H187.13V31.0245H190.232V17.5329C190.207 13.9459 193.387 10.8989 197.186 10.8989C201.892 10.8989 204.375 14.8064 204.375 18.8367V31.0256H207.27V18.8367C207.27 13.0864 203.675 8.34264 197.136 8.34264Z" fill="white"/>
</svg>
