<svg width="167" height="32" viewBox="0 0 167 32" fill="none" xmlns="http://www.w3.org/2000/svg">
<path fill-rule="evenodd" clip-rule="evenodd" d="M150.179 1.0544H166.482V3.52371C166.008 3.37256 165.512 3.29465 165.013 3.29295H155.642V14.8315H164.758C165.413 14.8315 165.996 14.7631 166.481 14.6468V17.1052C166.068 17.0132 165.499 16.9665 164.794 16.9665H155.642V28.8975H164.733C165.232 28.8975 165.826 28.8285 166.481 28.6783V31.3323H150.203C150.333 30.8656 150.399 30.3847 150.398 29.9018V2.51947C150.398 1.91991 150.325 1.42388 150.179 1.0544ZM146.405 8.91233L141.695 8.8785C141.464 6.3625 139.947 3.92703 136.609 3.47837C129.459 2.86662 127.444 10.3314 127.626 15.7897C127.809 21.0511 128.694 29.1398 136.075 29.1398C139.171 29.1398 142.144 26.1163 142.047 23.5664L146.405 23.5326C146.089 28.794 139.741 31.8399 136.718 31.9441C126.389 32.2791 122.066 25.736 121.848 16.4001C121.654 7.94396 125.296 0.431152 135.504 0.431152C144.244 0.546869 145.931 5.46248 146.405 8.91233ZM72.9408 27.8933L76.0611 25.4125C77.687 27.963 79.0225 29.1276 82.2517 29.1276C85.5286 29.1276 88.285 27.2356 88.285 23.8899C88.285 22.2394 87.5802 20.8894 86.1849 19.8743C85.5528 19.4006 83.951 18.5818 81.4259 17.4395C77.6507 15.7207 73.9731 13.4815 73.9731 8.98203C73.9731 3.30445 79.0467 0.800635 84.3995 0.615217C87.5681 0.500177 91.5014 2.16285 93.091 4.03124L89.9231 6.35032C89.3581 5.34803 88.5181 4.50989 87.4923 3.92489C86.4665 3.33988 85.2932 3.02984 84.0969 3.02768C80.0541 3.02768 76.8498 7.48177 80.2 10.5513C81.0493 11.3356 82.7863 12.3047 85.4324 13.4585C89.6561 15.3397 93.2612 17.5891 93.2612 22.5629C93.2612 24.2817 92.7878 25.8855 91.853 27.3513C89.9722 30.3051 86.8278 31.7824 82.4339 31.7824C77.3838 31.7824 76.3892 30.6861 72.9408 27.8933ZM28.4893 1.0544H44.7782V3.52371C44.3051 3.37262 43.8094 3.29471 43.3103 3.29295H33.9396V14.8315H43.0554C43.7111 14.8315 44.2941 14.7631 44.7789 14.6468V17.1052C44.366 17.0132 43.7958 16.9665 43.1046 16.9665H33.9396V28.8975H43.0312C43.5289 28.8975 44.124 28.8285 44.7789 28.6783V31.3323H28.5143C28.6332 30.8638 28.6941 30.3837 28.6958 29.9018V2.51947C28.6958 1.91991 28.6225 1.42388 28.4893 1.0544ZM0 1.0544H5.92368V1.33185C5.92368 1.58562 6.0084 1.91991 6.15434 2.34691L14.5049 26.2435L23.0754 2.2427C23.2085 1.83938 23.2818 1.44689 23.2818 1.0544H26.1586C25.8674 1.53892 25.6489 1.9666 25.515 2.34691L15.7308 30.098C15.6339 30.3633 15.5492 30.7788 15.4766 31.333H10.6208C10.5474 30.9135 10.4379 30.5005 10.2933 30.098L0.704065 2.56617C0.482555 2.05841 0.251627 1.55441 0.0113903 1.0544H0ZM62.9145 16.84C66.7986 16.1125 69.7729 13.2859 69.7729 9.2473C69.7729 3.95003 65.1114 1.05372 59.8918 1.05372H50.3509C50.4841 1.51592 50.5574 2.00044 50.5574 2.50797V29.8774C50.5574 30.4662 50.4841 30.9622 50.3509 31.3317H56.0319C55.8929 30.8583 55.8235 30.3689 55.8254 29.8774V17.3015L57.6457 17.4862L67.1631 31.3317H72.8803L62.9145 16.84ZM61.9314 14.5324C60.8998 15.224 59.6611 15.5698 58.2409 15.5698H55.8133V3.25979H57.986C59.8441 3.25979 61.2878 3.69762 62.32 4.57396C63.7282 5.78662 64.4443 7.42493 64.4443 9.47874C64.4443 11.6943 63.6064 13.3793 61.9314 14.5331M120.901 30.075L110.293 2.05863C110.175 1.73471 110.105 1.39667 110.086 1.0544H105.497C105.497 1.41238 105.436 1.79269 105.29 2.17368L95.0096 30.075C94.875 30.4777 94.6572 30.8938 94.366 31.3323H97.3275C97.3161 30.8708 97.3766 30.4438 97.5105 30.075L100.556 21.8469H112.27L115.281 30.0757C115.439 30.5244 115.511 30.9399 115.511 31.3323H121.654C121.301 30.8593 121.047 30.4323 120.901 30.075ZM101.358 19.6199L106.31 5.947L111.397 19.6199H101.358Z" fill="white"/>
</svg>
